<?xml version="1.0" encoding="UTF-8"?>
<svg width="360px" height="640px" viewBox="0 0 360 640" version="1.1" xmlns="http://www.w3.org/2000/svg" xmlns:xlink="http://www.w3.org/1999/xlink">
    <!-- Generator: Sketch 52.1 (67048) - http://www.bohemiancoding.com/sketch -->
    <title>my_farms_empty copy@3x</title>
    <desc>Created with Sketch.</desc>
    <defs>
        <filter x="-62.2%" y="-63.1%" width="224.4%" height="226.2%" filterUnits="objectBoundingBox" id="filter-1">
            <feGaussianBlur stdDeviation="8" in="SourceGraphic"></feGaussianBlur>
        </filter>
        <rect id="path-2" x="0" y="0" width="160" height="86" rx="7"></rect>
        <filter x="-8.8%" y="-11.6%" width="117.5%" height="132.6%" filterUnits="objectBoundingBox" id="filter-3">
            <feOffset dx="0" dy="4" in="SourceAlpha" result="shadowOffsetOuter1"></feOffset>
            <feGaussianBlur stdDeviation="4" in="shadowOffsetOuter1" result="shadowBlurOuter1"></feGaussianBlur>
            <feColorMatrix values="0 0 0 0 0   0 0 0 0 0   0 0 0 0 0  0 0 0 0.2 0" type="matrix" in="shadowBlurOuter1"></feColorMatrix>
        </filter>
    </defs>
    <g id="my_farms_empty-copy" stroke="none" stroke-width="1" fill="none" fill-rule="evenodd">
        <rect fill="#FFFFFF" x="0" y="0" width="360" height="640"></rect>
        <rect id="Rectangle" fill="#F9FAFB" fill-rule="nonzero" x="0" y="0" width="360" height="640"></rect>
        <g id="status_bar_my_farms">
            <g id="Group-2">
                <rect id="Rectangle" fill="#344455" x="0" y="0" width="360" height="80"></rect>
                <g id="Group">
                    <g id="Status-bar">
                        <g id="Status-bar-/-Black" transform="translate(242.000000, 0.000000)">
                            <g id="time" opacity="0.9" transform="translate(77.000000, 5.000000)" fill="#82939A" font-family="Avenir-Medium, Avenir" font-size="13" font-weight="400">
                                <text id="12:30">
                                    <tspan x="0.474" y="13">12:30</tspan>
                                </text>
                            </g>
                            <g id="battery" transform="translate(55.000000, 4.000000)">
                                <polygon id="bounds" points="0 0 16 0 16 16 0 16"></polygon>
                                <polygon id="Shape" fill="#82939A" points="9 1.875 9 1 6 1 6 1.875 3 1.875 3 15 12 15 12 1.875"></polygon>
                            </g>
                            <g id="cellular" transform="translate(35.000000, 4.000000)">
                                <polygon id="bounds" points="0 0 16 0 16 16 0 16"></polygon>
                                <polygon id="Shape" fill="#82939A" points="0 15 14 15 14 1"></polygon>
                            </g>
                            <g id="wifi" transform="translate(14.000000, 4.000000)">
                                <polygon id="bounds" points="2 0 18 0 18 16 2 16"></polygon>
                                <path d="M0.977372085,4.01593123 C3.48821908,2.12256382 6.61301513,1 10,1 C13.3869849,1 16.5117809,2.12256382 19.0226279,4.01593123 L10,15 L0.977372085,4.01593123 Z" id="Shape" fill="#82939A"></path>
                            </g>
                        </g>
                        <g id="Title" transform="translate(135.000000, 45.000000)" fill="#F9AA33" font-family="Avenir-Black, Avenir" font-size="12" font-weight="700">
                            <text id="Name">
                                <tspan x="13.002" y="12">MY FARMS</tspan>
                            </text>
                        </g>
                    </g>
                    <path d="M336,46 C336,44.8954305 336.88773,44 338,44 C339.104569,44 340,44.8877296 340,46 C340,47.1045695 339.11227,48 338,48 C336.895431,48 336,47.1122704 336,46 Z M336,52 C336,50.8954305 336.88773,50 338,50 C339.104569,50 340,50.8877296 340,52 C340,53.1045695 339.11227,54 338,54 C336.895431,54 336,53.1122704 336,52 Z M336,58 C336,56.8954305 336.88773,56 338,56 C339.104569,56 340,56.8877296 340,58 C340,59.1045695 339.11227,60 338,60 C336.895431,60 336,59.1122704 336,58 Z" id="Combined-Shape" fill="#F9AA33"></path>
                </g>
            </g>
        </g>
        <g id="fab_yellow" transform="translate(285.000000, 569.000000)">
            <g id="Group-9">
                <ellipse id="Oval" fill="#243B6B" opacity="0.5" style="mix-blend-mode: multiply;" filter="url(#filter-1)" cx="27" cy="38.9836066" rx="19.2857143" ry="19.0163934"></ellipse>
                <ellipse id="Oval-Copy" fill="#F9AA33" cx="27" cy="26.6229508" rx="27" ry="26.6229508"></ellipse>
                <polygon id="+" fill="#FFFFFF" points="19 26.028459 26.128 26.028459 26.128 19 27.6091429 19 27.6091429 26.028459 34.7371429 26.028459 34.7371429 27.488918 27.6091429 27.488918 27.6091429 34.517377 26.128 34.517377 26.128 27.488918 19 27.488918"></polygon>
            </g>
        </g>
        <g id="drop_down_menu_2_deep" transform="translate(190.000000, 37.000000)">
            <g id="Group-2">
                <g id="Bg">
                    <use fill="black" fill-opacity="1" filter="url(#filter-3)" xlink:href="#path-2"></use>
                    <use fill="#FFFFFF" fill-rule="evenodd" xlink:href="#path-2"></use>
                </g>
                <path d="M146,12 C146,10.8954305 146.88773,10 148,10 C149.104569,10 150,10.8877296 150,12 C150,13.1045695 149.11227,14 148,14 C146.895431,14 146,13.1122704 146,12 Z M146,18 C146,16.8954305 146.88773,16 148,16 C149.104569,16 150,16.8877296 150,18 C150,19.1045695 149.11227,20 148,20 C146.895431,20 146,19.1122704 146,18 Z M146,24 C146,22.8954305 146.88773,22 148,22 C149.104569,22 150,22.8877296 150,24 C150,25.1045695 149.11227,26 148,26 C146.895431,26 146,25.1122704 146,24 Z" id="Combined-Shape" fill="#E0E0E0"></path>
                <g id="Settings" transform="translate(12.000000, 53.000000)">
                    <text id="SETTINGS" font-family="Avenir-Light, Avenir" font-size="12" font-weight="300" fill="#878787">
                        <tspan x="28" y="13">SETTINGS</tspan>
                    </text>
                    <g id="settings" fill="#D0D0D0">
                        <g id="Capa_1">
                            <g id="Group">
                                <path d="M16.1248148,6.61111111 L14.5343704,6.61111111 C14.2787407,6.61111111 14.0681296,6.47038889 13.9702222,6.23427778 C13.8723148,5.99816667 13.9220556,5.74946296 14.1024444,5.56875926 L15.226963,4.44455556 C15.3922407,4.27927778 15.4832222,4.05922222 15.4832222,3.82562963 C15.4832222,3.59172222 15.3922407,3.37198148 15.226963,3.20638889 L13.7936111,1.77303704 C13.4630556,1.44248148 12.8866296,1.44185185 12.5554444,1.77303704 L11.4312407,2.89724074 C11.250537,3.07762963 11.0012037,3.128 10.7657222,3.02977778 C10.5296111,2.93187037 10.3888889,2.72125926 10.3888889,2.46562963 L10.3888889,0.875185185 C10.3888889,0.392574074 9.99631481,0 9.5137037,0 L7.4862963,0 C7.00368519,0 6.61111111,0.392574074 6.61111111,0.875185185 L6.61111111,2.46562963 C6.61111111,2.72125926 6.47038889,2.93187037 6.23427778,3.02977778 C5.9987963,3.12831481 5.74946296,3.07762963 5.56875926,2.89724074 L4.44455556,1.77303704 C4.11337037,1.44185185 3.53694444,1.44248148 3.20638889,1.77303704 L1.77303704,3.20638889 C1.60775926,3.37166667 1.51677778,3.59172222 1.51677778,3.82562963 C1.51677778,4.05922222 1.60775926,4.27896296 1.77303704,4.44455556 L2.89755556,5.56875926 C3.07794444,5.74946296 3.12737037,5.99816667 3.02977778,6.23427778 C2.93218519,6.47038889 2.72125926,6.61111111 2.46562963,6.61111111 L0.875185185,6.61111111 C0.392574074,6.61111111 0,7.00368519 0,7.4862963 L0,9.51338889 C0,9.99631481 0.392574074,10.3888889 0.875185185,10.3888889 L2.46562963,10.3888889 C2.72125926,10.3888889 2.93187037,10.5296111 3.02977778,10.7657222 C3.12768519,11.0018333 3.07794444,11.250537 2.89755556,11.4312407 L1.77303704,12.5554444 C1.60775926,12.7207222 1.51677778,12.9407778 1.51677778,13.1743704 C1.51677778,13.4082778 1.60775926,13.6280185 1.77303704,13.7936111 L3.20638889,15.226963 C3.53725926,15.5578333 4.11337037,15.558463 4.44455556,15.226963 L5.56875926,14.1024444 C5.74946296,13.9220556 5.99785185,13.8723148 6.23427778,13.9702222 C6.47038889,14.0681296 6.61111111,14.2787407 6.61111111,14.5343704 L6.61111111,16.1248148 C6.61111111,16.6074259 7.00368519,17 7.4862963,17 L9.51338889,17 C9.996,17 10.3885741,16.6074259 10.3885741,16.1248148 L10.3885741,14.5343704 C10.3885741,14.2787407 10.5292963,14.0681296 10.7654074,13.9702222 C11.0018333,13.872 11.2502222,13.9220556 11.4309259,14.1024444 L12.5551296,15.226963 C12.8863148,15.5581481 13.4627407,15.5575185 13.7932963,15.226963 L15.2266481,13.7936111 C15.3919259,13.6283333 15.4829074,13.4082778 15.4829074,13.1743704 C15.4829074,12.9407778 15.3919259,12.721037 15.2266481,12.5554444 L14.1021296,11.4312407 C13.9217407,11.250537 13.8723148,11.0018333 13.9699074,10.7657222 C14.0675,10.5296111 14.2787407,10.3888889 14.5343704,10.3888889 L16.1248148,10.3888889 C16.6074259,10.3888889 17,9.99631481 17,9.5137037 L17,7.4862963 C17,7.00368519 16.6074259,6.61111111 16.1248148,6.61111111 Z M16.3703704,9.5137037 C16.3703704,9.64907407 16.2601852,9.75925926 16.1248148,9.75925926 L14.5343704,9.75925926 C14.0231111,9.75925926 13.5839444,10.0526667 13.3884444,10.5248889 C13.1926296,10.9971111 13.2955741,11.5152963 13.6572963,11.8767037 L14.7818148,13.0009074 C14.8778333,13.0969259 14.8778333,13.2527593 14.7818148,13.348463 L13.348463,14.7818148 C13.2527593,14.8775185 13.0969259,14.8781481 13.0009074,14.7818148 L11.8767037,13.6572963 C11.5149815,13.2955741 10.9971111,13.1932593 10.5248889,13.3884444 C10.0526667,13.5839444 9.75925926,14.0231111 9.75925926,14.5343704 L9.75925926,16.1248148 C9.75925926,16.2601852 9.64907407,16.3703704 9.5137037,16.3703704 L7.4862963,16.3703704 C7.35092593,16.3703704 7.24074074,16.2601852 7.24074074,16.1248148 L7.24074074,14.5343704 C7.24074074,14.0231111 6.94733333,13.5839444 6.47511111,13.3884444 C6.31675926,13.3226481 6.15368519,13.290537 5.9925,13.290537 C5.67327778,13.290537 5.36381481,13.416463 5.1232963,13.6569815 L3.99909259,14.7815 C3.90275926,14.8778333 3.74692593,14.8772037 3.65153704,14.7815 L2.21818519,13.3481481 C2.12216667,13.2521296 2.12216667,13.0962963 2.21818519,13.0005926 L3.3427037,11.8763889 C3.70411111,11.5149815 3.80737037,10.9967963 3.61155556,10.5245741 C3.41605556,10.0526667 2.97688889,9.75925926 2.46562963,9.75925926 L0.875185185,9.75925926 C0.739814815,9.75925926 0.62962963,9.64907407 0.62962963,9.5137037 L0.62962963,7.4862963 C0.62962963,7.35092593 0.739814815,7.24074074 0.875185185,7.24074074 L2.46562963,7.24074074 C2.97688889,7.24074074 3.41605556,6.94733333 3.61155556,6.47511111 C3.80737037,6.00288889 3.70442593,5.4847037 3.3427037,5.1232963 L2.21818519,3.99909259 C2.12216667,3.90307407 2.12216667,3.74724074 2.21818519,3.65153704 L3.65153704,2.21818519 C3.74724074,2.12216667 3.90307407,2.12216667 3.99909259,2.21818519 L5.1232963,3.34238889 C5.48438889,3.70348148 6.00225926,3.80705556 6.47511111,3.61124074 C6.94733333,3.41605556 7.24074074,2.97688889 7.24074074,2.46562963 L7.24074074,0.875185185 C7.24074074,0.739814815 7.35092593,0.62962963 7.4862963,0.62962963 L9.51338889,0.62962963 C9.64907407,0.62962963 9.75925926,0.739814815 9.75925926,0.875185185 L9.75925926,2.46562963 C9.75925926,2.97688889 10.0526667,3.41605556 10.5248889,3.61155556 C10.9977407,3.80737037 11.5152963,3.70411111 11.8767037,3.3427037 L13.0009074,2.2185 C13.0972407,2.12248148 13.2530741,2.12248148 13.348463,2.2185 L14.7818148,3.65185185 C14.8778333,3.74787037 14.8778333,3.9037037 14.7818148,3.99940741 L13.6572963,5.12361111 C13.2958889,5.48501852 13.1926296,6.0032037 13.3884444,6.47542593 C13.5839444,6.94764815 14.0231111,7.24105556 14.5343704,7.24105556 L16.1248148,7.24105556 C16.2601852,7.24074074 16.3703704,7.35092593 16.3703704,7.4862963 L16.3703704,9.5137037 Z" id="Shape"></path>
                                <path d="M8.5,5.66666667 C6.93757407,5.66666667 5.66666667,6.93757407 5.66666667,8.5 C5.66666667,10.0624259 6.93757407,11.3333333 8.5,11.3333333 C10.0624259,11.3333333 11.3333333,10.0624259 11.3333333,8.5 C11.3333333,6.93757407 10.0624259,5.66666667 8.5,5.66666667 Z M8.5,10.7037037 C7.28512963,10.7037037 6.2962963,9.71487037 6.2962963,8.5 C6.2962963,7.28512963 7.28512963,6.2962963 8.5,6.2962963 C9.71487037,6.2962963 10.7037037,7.28512963 10.7037037,8.5 C10.7037037,9.71487037 9.71487037,10.7037037 8.5,10.7037037 Z" id="Shape"></path>
                            </g>
                        </g>
                    </g>
                </g>
                <g id="Locations" transform="translate(14.000000, 12.000000)">
                    <text id="EDIT-FARMS" font-family="Avenir-Roman, Avenir" font-size="12" font-weight="normal" fill="#878787">
                        <tspan x="26" y="13">EDIT FARMS</tspan>
                    </text>
                    <g id="placeholder-2" fill="#D0D0D0">
                        <g id="Capa_1">
                            <g id="Group">
                                <path d="M6.01753846,3.69230769 C4.83015385,3.69230769 3.86369231,4.65876923 3.86369231,5.84615385 C3.86369231,7.03353846 4.83015385,8 6.01753846,8 C7.20492308,8 8.17138462,7.03353846 8.17138462,5.84615385 C8.17138462,4.65876923 7.20492308,3.69230769 6.01753846,3.69230769 Z M6.01753846,7.38461538 C5.16923077,7.38461538 4.47907692,6.69446154 4.47907692,5.84615385 C4.47907692,4.99784615 5.16923077,4.30769231 6.01753846,4.30769231 C6.86584615,4.30769231 7.556,4.99784615 7.556,5.84615385 C7.556,6.69446154 6.86584615,7.38461538 6.01753846,7.38461538 Z" id="Shape"></path>
                                <path d="M10.1353846,1.72830769 C9.02092308,0.613846154 7.53907692,0 5.96307692,0 C4.38676923,0 2.90523077,0.613846154 1.79076923,1.72830769 C-0.271692308,3.79046154 -0.528,7.67046154 1.23569231,10.0212308 L5.96307692,16.8483077 L10.6833846,10.0307692 C12.4541538,7.67046154 12.1978462,3.79046154 10.1353846,1.72830769 Z M10.1843077,9.67107692 L5.96307692,15.7670769 L1.73507692,9.66153846 C0.135384615,7.52861538 0.364615385,4.02461538 2.22615385,2.16338462 C3.22430769,1.16523077 4.55138462,0.615384615 5.96307692,0.615384615 C7.37476923,0.615384615 8.70184615,1.16523077 9.70030769,2.16338462 C11.5618462,4.02461538 11.7910769,7.52861538 10.1843077,9.67107692 Z" id="Shape"></path>
                            </g>
                        </g>
                    </g>
                </g>
            </g>
        </g>
    </g>
</svg>