<?xml version="1.0" encoding="UTF-8"?>
<svg width="360px" height="640px" viewBox="0 0 360 640" version="1.1" xmlns="http://www.w3.org/2000/svg" xmlns:xlink="http://www.w3.org/1999/xlink">
    <!-- Generator: Sketch 52.1 (67048) - http://www.bohemiancoding.com/sketch -->
    <title>my_farms_empty@3x</title>
    <desc>Created with Sketch.</desc>
    <defs>
        <filter x="-62.2%" y="-63.1%" width="224.4%" height="226.2%" filterUnits="objectBoundingBox" id="filter-1">
            <feGaussianBlur stdDeviation="8" in="SourceGraphic"></feGaussianBlur>
        </filter>
    </defs>
    <g id="my_farms_empty" stroke="none" stroke-width="1" fill="none" fill-rule="evenodd">
        <rect fill="#FFFFFF" x="0" y="0" width="360" height="640"></rect>
        <rect id="Rectangle" fill="#F9FAFB" fill-rule="nonzero" x="0" y="0" width="360" height="640"></rect>
        <g id="status_bar_my_farms">
            <g id="Group-2">
                <rect id="Rectangle" fill="#344455" x="0" y="0" width="360" height="80"></rect>
                <g id="Group">
                    <g id="Status-bar">
                        <g id="Status-bar-/-Black" transform="translate(242.000000, 0.000000)">
                            <g id="time" opacity="0.9" transform="translate(77.000000, 5.000000)" fill="#82939A" font-family="Avenir-Medium, Avenir" font-size="13" font-weight="400">
                                <text id="12:30">
                                    <tspan x="0.474" y="13">12:30</tspan>
                                </text>
                            </g>
                            <g id="battery" transform="translate(55.000000, 4.000000)">
                                <polygon id="bounds" points="0 0 16 0 16 16 0 16"></polygon>
                                <polygon id="Shape" fill="#82939A" points="9 1.875 9 1 6 1 6 1.875 3 1.875 3 15 12 15 12 1.875"></polygon>
                            </g>
                            <g id="cellular" transform="translate(35.000000, 4.000000)">
                                <polygon id="bounds" points="0 0 16 0 16 16 0 16"></polygon>
                                <polygon id="Shape" fill="#82939A" points="0 15 14 15 14 1"></polygon>
                            </g>
                            <g id="wifi" transform="translate(14.000000, 4.000000)">
                                <polygon id="bounds" points="2 0 18 0 18 16 2 16"></polygon>
                                <path d="M0.977372085,4.01593123 C3.48821908,2.12256382 6.61301513,1 10,1 C13.3869849,1 16.5117809,2.12256382 19.0226279,4.01593123 L10,15 L0.977372085,4.01593123 Z" id="Shape" fill="#82939A"></path>
                            </g>
                        </g>
                        <g id="Title" transform="translate(135.000000, 45.000000)" fill="#F9AA33" font-family="Avenir-Black, Avenir" font-size="12" font-weight="700">
                            <text id="Name">
                                <tspan x="13.002" y="12">MY FARMS</tspan>
                            </text>
                        </g>
                    </g>
                    <path d="M336,46 C336,44.8954305 336.88773,44 338,44 C339.104569,44 340,44.8877296 340,46 C340,47.1045695 339.11227,48 338,48 C336.895431,48 336,47.1122704 336,46 Z M336,52 C336,50.8954305 336.88773,50 338,50 C339.104569,50 340,50.8877296 340,52 C340,53.1045695 339.11227,54 338,54 C336.895431,54 336,53.1122704 336,52 Z M336,58 C336,56.8954305 336.88773,56 338,56 C339.104569,56 340,56.8877296 340,58 C340,59.1045695 339.11227,60 338,60 C336.895431,60 336,59.1122704 336,58 Z" id="Combined-Shape" fill="#F9AA33"></path>
                </g>
            </g>
        </g>
        <g id="fab_yellow" transform="translate(285.000000, 569.000000)">
            <g id="Group-9">
                <ellipse id="Oval" fill="#243B6B" opacity="0.5" style="mix-blend-mode: multiply;" filter="url(#filter-1)" cx="27" cy="38.9836066" rx="19.2857143" ry="19.0163934"></ellipse>
                <ellipse id="Oval-Copy" fill="#F9AA33" cx="27" cy="26.6229508" rx="27" ry="26.6229508"></ellipse>
                <polygon id="+" fill="#FFFFFF" points="19 26.028459 26.128 26.028459 26.128 19 27.6091429 19 27.6091429 26.028459 34.7371429 26.028459 34.7371429 27.488918 27.6091429 27.488918 27.6091429 34.517377 26.128 34.517377 26.128 27.488918 19 27.488918"></polygon>
            </g>
        </g>
    </g>
</svg>